<svg xmlns="http://www.w3.org/2000/svg" xmlns:xlink="http://www.w3.org/1999/xlink" width="180" height="180" viewBox="0 0 180 180">
  <metadata><?xpacket begin="﻿" id="W5M0MpCehiHzreSzNTczkc9d"?>
<x:xmpmeta xmlns:x="adobe:ns:meta/" x:xmptk="Adobe XMP Core 5.6-c138 79.159824, 2016/09/14-01:09:01        ">
   <rdf:RDF xmlns:rdf="http://www.w3.org/1999/02/22-rdf-syntax-ns#">
      <rdf:Description rdf:about=""/>
   </rdf:RDF>
</x:xmpmeta>
                                                                                                    
                                                                                                    
                                                                                                    
                                                                                                    
                                                                                                    
                                                                                                    
                                                                                                    
                                                                                                    
                                                                                                    
                                                                                                    
                                                                                                    
                                                                                                    
                                                                                                    
                                                                                                    
                                                                                                    
                                                                                                    
                                                                                                    
                                                                                                    
                                                                                                    
                                                                                                    
                           
<?xpacket end="w"?></metadata>
<defs>
    <style>
      .cls-1 {
        fill: #1a5293;
        fill-rule: evenodd;
        filter: url(#filter);
      }
    </style>
    <filter id="filter" x="0" y="7" width="180" height="165" filterUnits="userSpaceOnUse">
      <feFlood result="flood" flood-color="#fff"/>
      <feComposite result="composite" operator="in" in2="SourceGraphic"/>
      <feBlend result="blend" in2="SourceGraphic"/>
    </filter>
  </defs>
  <path id="Ask_a_Question" data-name="Ask a Question" class="cls-1" d="M137.713,45.89c0,5.488-3.97,8.826-6.868,11.276-1.1.928-3.143,2.621-3.137,3.253a4.409,4.409,0,0,1-4.428,4.461h-0.037a4.421,4.421,0,0,1-4.462-4.388c-0.039-4.864,3.489-7.778,6.323-10.173,2.224-1.88,3.683-3.2,3.683-4.412a4.416,4.416,0,1,0-8.832,0,4.464,4.464,0,1,1-8.927,0A13.343,13.343,0,1,1,137.713,45.89ZM123.367,69.027A4.4,4.4,0,0,0,119,73.519v0.034a4.381,4.381,0,0,0,4.365,4.475A4.5,4.5,0,0,0,123.367,69.027Zm-89.961,31.29a4.492,4.492,0,0,0,0,8.984h0.372a4.492,4.492,0,0,0,0-8.984H33.406Zm15.51,0a4.492,4.492,0,0,0,0,8.984h0.371a4.492,4.492,0,0,0,0-8.984H48.917ZM180,28.573V79.132a21.524,21.524,0,0,1-21.43,21.685H100.687c-1.132,0-2.063-.007-2.844-0.023-0.816-.017-1.736-0.024-2.095.016-0.372.25-1.288,1.094-2.17,1.912-0.35.324-.746,0.68-1.172,1.072L76.03,118.815a4.518,4.518,0,0,1-4.857.792A4.579,4.579,0,0,1,68.42,115.5V67.876H21.667A12.829,12.829,0,0,0,8.913,80.644V131.2a12.63,12.63,0,0,0,12.754,12.535H86.319a4.469,4.469,0,0,1,2.978,1.27l13.341,12.379V114.7a4.463,4.463,0,1,1,8.926,0v52.873a4.429,4.429,0,0,1-2.63,4.085,4.255,4.255,0,0,1-1.768.358,4.493,4.493,0,0,1-3.01-1.222L84.59,152.721H21.667A21.6,21.6,0,0,1-.014,131.2V80.644A21.8,21.8,0,0,1,21.667,58.892H68.42V28.573A21.717,21.717,0,0,1,90.176,6.987h68.392A21.44,21.44,0,0,1,180,28.573Zm-8.926,0a12.475,12.475,0,0,0-12.5-12.6H90.176a12.753,12.753,0,0,0-12.829,12.6v76.744l8.972-8.162c0.416-.382.881-0.731,1.222-1.046,4.1-3.8,5.146-4.408,10.491-4.3,0.728,0.016,1.6.021,2.655,0.021h57.881a12.559,12.559,0,0,0,12.5-12.7V28.573h0Z" transform="translate(0 0.5)"/>
</svg>
