<svg xmlns="http://www.w3.org/2000/svg" xmlns:xlink="http://www.w3.org/1999/xlink" width="180" height="180" viewBox="0 0 180 180">
  <metadata><?xpacket begin="﻿" id="W5M0MpCehiHzreSzNTczkc9d"?>
<x:xmpmeta xmlns:x="adobe:ns:meta/" x:xmptk="Adobe XMP Core 5.6-c138 79.159824, 2016/09/14-01:09:01        ">
   <rdf:RDF xmlns:rdf="http://www.w3.org/1999/02/22-rdf-syntax-ns#">
      <rdf:Description rdf:about=""/>
   </rdf:RDF>
</x:xmpmeta>
                                                                                                    
                                                                                                    
                                                                                                    
                                                                                                    
                                                                                                    
                                                                                                    
                                                                                                    
                                                                                                    
                                                                                                    
                                                                                                    
                                                                                                    
                                                                                                    
                                                                                                    
                                                                                                    
                                                                                                    
                                                                                                    
                                                                                                    
                                                                                                    
                                                                                                    
                                                                                                    
                           
<?xpacket end="w"?></metadata>
<defs>
    <style>
      .cls-1 {
        fill: #1a5293;
        fill-rule: evenodd;
        filter: url(#filter);
      }
    </style>
    <filter id="filter" x="0" y="38" width="179" height="105" filterUnits="userSpaceOnUse">
      <feFlood result="flood" flood-color="#fff"/>
      <feComposite result="composite" operator="in" in2="SourceGraphic"/>
      <feBlend result="blend" in2="SourceGraphic"/>
    </filter>
  </defs>
  <path id="Companion_Complementary_Dx" data-name="Companion / Complementary Dx" class="cls-1" d="M105.586,81.927a5.592,5.592,0,0,0-11.038,1.789,42.315,42.315,0,0,1,.556,6.792c0,22.856-18.818,41.449-41.955,41.449S11.2,113.364,11.2,90.508,30.013,49.06,53.149,49.06A42.037,42.037,0,0,1,71.912,53.42a5.627,5.627,0,0,0,7.506-2.472,5.5,5.5,0,0,0-2.506-7.416,53.215,53.215,0,0,0-23.762-5.526c-29.3,0-53.141,23.555-53.141,52.5s23.842,52.5,53.141,52.5,53.143-23.553,53.143-52.5A52.477,52.477,0,0,0,105.586,81.927Zm20.284-43.92c-29.3,0-53.142,23.555-53.142,52.5a51.539,51.539,0,0,0,.688,8.43,5.59,5.59,0,0,0,11.038-1.77,40.984,40.984,0,0,1-.538-6.66c0-22.856,18.814-41.448,41.954-41.448s41.954,18.593,41.954,41.448-18.814,41.449-41.954,41.449a41.962,41.962,0,0,1-18.759-4.361,5.638,5.638,0,0,0-7.505,2.472,5.494,5.494,0,0,0,2.49,7.415,53.219,53.219,0,0,0,23.768,5.527c29.3,0,53.142-23.553,53.142-52.5S155.172,38.007,125.87,38.007Z" transform="translate(0.5 -0.5)"/>
</svg>
