<svg xmlns="http://www.w3.org/2000/svg" width="180" height="180" viewBox="0 0 180 180">
  <metadata><?xpacket begin="﻿" id="W5M0MpCehiHzreSzNTczkc9d"?>
<x:xmpmeta xmlns:x="adobe:ns:meta/" x:xmptk="Adobe XMP Core 5.6-c138 79.159824, 2016/09/14-01:09:01        ">
   <rdf:RDF xmlns:rdf="http://www.w3.org/1999/02/22-rdf-syntax-ns#">
      <rdf:Description rdf:about=""/>
   </rdf:RDF>
</x:xmpmeta>
                                                                                                    
                                                                                                    
                                                                                                    
                                                                                                    
                                                                                                    
                                                                                                    
                                                                                                    
                                                                                                    
                                                                                                    
                                                                                                    
                                                                                                    
                                                                                                    
                                                                                                    
                                                                                                    
                                                                                                    
                                                                                                    
                                                                                                    
                                                                                                    
                                                                                                    
                                                                                                    
                           
<?xpacket end="w"?></metadata>
<defs>
    <style>
      .cls-1 {
        fill: #fff;
        fill-rule: evenodd;
      }
    </style>
  </defs>
  <path class="cls-1" d="M178.786,50.3a4.087,4.087,0,0,0-5.783,0c-0.417.417-.874,0.731-1.309,1.1L128.6,8.309c0.37-.436.683-0.894,1.1-1.311a4.09,4.09,0,1,0-5.784-5.784c-9.586,9.587-9.482,22.386-9.394,32.669l0.016,2.948c0,2.9.862,7.179,2.053,13.095,1.955,9.677,4.608,22.918,4.249,35.3L94.818,59.2a93.37,93.37,0,0,1,10.041.24,4.177,4.177,0,0,0,4.394-3.755,4.088,4.088,0,0,0-3.755-4.4c-19.724-1.574-33.776,2.129-42.931,11.289-17.583,17.585-11.072,49.854-7.182,69.137,0.8,3.966,1.5,7.458,1.763,9.8L38.543,122.905c0.483,0.054.849,0.058,1.417,0.143a4.089,4.089,0,0,0,1.23-8.085,30.2,30.2,0,0,0-4.362-.412l-2.948-.016c-10.305-.068-23.071-0.195-32.666,9.4A4.09,4.09,0,1,0,7,129.715c0.418-.418.876-0.731,1.312-1.1L51.4,171.706c-0.37.436-.683,0.894-1.1,1.312a4.09,4.09,0,1,0,5.784,5.784c9.586-9.587,9.482-22.386,9.395-32.669l-0.016-2.948c0-2.9-.863-7.179-2.053-13.095-0.18-.89-0.368-1.831-0.557-2.779a129.833,129.833,0,0,0,19.9,1.741c12.862,0,25.756-2.677,34.687-11.609,13.659-13.661,12.768-36.165,9.871-54.577,0.9,0.18,1.919.37,2.767,0.541,5.919,1.195,10.193,2.057,13.1,2.057l2.948,0.016c0.991,0.008,2,.016,3.028.016,9.682,0,20.97-.743,29.638-9.412A4.089,4.089,0,0,0,178.786,50.3ZM55.544,164.285L15.736,124.472a40.453,40.453,0,0,1,11.106-1.7l30.407,30.409A40.264,40.264,0,0,1,55.544,164.285Zm5.7-45.541a123.557,123.557,0,0,1-2.085-23.957L85.162,120.8A122.447,122.447,0,0,1,61.242,118.744Zm34.3,0.87L60.331,84.392A33.673,33.673,0,0,1,65.708,71.5L108.39,114.18A33.643,33.643,0,0,1,95.546,119.614Zm18.749-11.1L71.484,65.706A33.427,33.427,0,0,1,84.4,60.352l35.271,35.27A33.674,33.674,0,0,1,114.3,108.517Zm17.4-53.127c-1.811-.367-3.881-0.762-5.906-1.153-0.4-2.07-.8-4.075-1.172-5.93-0.8-3.964-1.494-7.454-1.762-9.8L141.5,57.153C139.15,56.884,135.661,56.188,131.693,55.39Zm21.476,1.868L122.752,26.838a40.306,40.306,0,0,1,1.7-11.107l39.821,39.822A40.142,40.142,0,0,1,153.169,57.258Z"/>
</svg>
