<svg xmlns="http://www.w3.org/2000/svg" xmlns:xlink="http://www.w3.org/1999/xlink" width="180" height="180" viewBox="0 0 180 180">
  <metadata><?xpacket begin="﻿" id="W5M0MpCehiHzreSzNTczkc9d"?>
<x:xmpmeta xmlns:x="adobe:ns:meta/" x:xmptk="Adobe XMP Core 5.6-c138 79.159824, 2016/09/14-01:09:01        ">
   <rdf:RDF xmlns:rdf="http://www.w3.org/1999/02/22-rdf-syntax-ns#">
      <rdf:Description rdf:about=""/>
   </rdf:RDF>
</x:xmpmeta>
                                                                                                    
                                                                                                    
                                                                                                    
                                                                                                    
                                                                                                    
                                                                                                    
                                                                                                    
                                                                                                    
                                                                                                    
                                                                                                    
                                                                                                    
                                                                                                    
                                                                                                    
                                                                                                    
                                                                                                    
                                                                                                    
                                                                                                    
                                                                                                    
                                                                                                    
                                                                                                    
                           
<?xpacket end="w"?></metadata>
<defs>
    <style>
      .cls-1 {
        fill: #1a5293;
        fill-rule: evenodd;
        filter: url(#filter);
      }
    </style>
    <filter id="filter" x="10" y="1" width="160" height="178" filterUnits="userSpaceOnUse">
      <feFlood result="flood" flood-color="#fff"/>
      <feComposite result="composite" operator="in" in2="SourceGraphic"/>
      <feBlend result="blend" in2="SourceGraphic"/>
    </filter>
  </defs>
  <path id="Quiz_Me_" data-name="Quiz Me!" class="cls-1" d="M10.012,42.62H50.439V0.988H10.012V42.62ZM17.058,8.245H43.39V35.37H17.058V8.245ZM10.012,88.2H50.439V46.559H10.012V88.2Zm7.046-34.376H43.39V80.935H17.058V53.821Zm-7.046,79.765H50.439V91.944H10.012v41.642ZM17.058,99.2H43.39v27.125H17.058V99.2ZM10.012,179H50.439V137.355H10.012V179Zm7.046-34.386H43.39v27.124H17.058V144.612ZM61.276,9.36H167.351v8.157H61.276V9.36Zm0,14.507h76.142V32.03H61.276V23.867Zm0,28.57H167.351v8.158H61.276V52.437Zm0,14.507h76.142V75.1H61.276V66.944Zm2.637,32.179H169.991v8.163H63.912V99.123Zm0,14.513h76.145V121.8H63.912v-8.162Zm0,29.926H169.991v8.152H63.912v-8.152Zm0,14.5h76.145v8.163H63.912v-8.163Z"/>
</svg>
